HIERARCHY
ROOT root
{
	OFFSET 0.000000 0.000000 0.000000
	CHANNELS 6 Xposition Yposition Zposition Zrotation Yrotation Xrotation
	JOINT lhip
	{
		OFFSET 0.058581 -0.082280 -0.017664
		CHANNELS 3 Zrotation Yrotation Xrotation
		JOINT lknee
		{
			OFFSET 0.043451 -0.386469 0.008037
			CHANNELS 3 Zrotation Yrotation Xrotation
			JOINT lankle
			{
				OFFSET -0.014790 -0.426874 -0.037428
				CHANNELS 3 Zrotation Yrotation Xrotation
				JOINT ltoe
				{
					OFFSET 0.041054 -0.060286 0.122042
					CHANNELS 3 Zrotation Yrotation Xrotation
					End Site
					{
						OFFSET 0.000000 0.000000 0.000000
					}
				}
			}
		}
	}
	JOINT rhip
	{
		OFFSET -0.060310 -0.090513 -0.013543
		CHANNELS 3 Zrotation Yrotation Xrotation
		JOINT rknee
		{
			OFFSET -0.043257 -0.383688 -0.004843
			CHANNELS 3 Zrotation Yrotation Xrotation
			JOINT rankle
			{
				OFFSET 0.019056 -0.420046 -0.034562
				CHANNELS 3 Zrotation Yrotation Xrotation
				JOINT rtoe
				{
					OFFSET -0.034840 -0.062106 0.130323
					CHANNELS 3 Zrotation Yrotation Xrotation
					End Site
					{
						OFFSET 0.000000 0.000000 0.000000
					}
				}
			}
		}
	}
	JOINT lowerback
	{
		OFFSET 0.004439 0.124404 -0.038385
		CHANNELS 3 Zrotation Yrotation Xrotation
		JOINT upperback
		{
			OFFSET 0.004488 0.137956 0.026820
			CHANNELS 3 Zrotation Yrotation Xrotation
			JOINT chest
			{
				OFFSET -0.002265 0.056032 0.002855
				CHANNELS 3 Zrotation Yrotation Xrotation
				JOINT lowerneck
				{
					OFFSET -0.013390 0.211636 -0.033468
					CHANNELS 3 Zrotation Yrotation Xrotation
					JOINT upperneck
					{
						OFFSET 0.010113 0.088937 0.050410
						CHANNELS 3 Zrotation Yrotation Xrotation
						End Site
						{
							OFFSET 0.000000 0.000000 0.000000
						}
					}
				}
				JOINT lclavicle
				{
					OFFSET 0.071702 0.114000 -0.018898
					CHANNELS 3 Zrotation Yrotation Xrotation
					JOINT lshoulder
					{
						OFFSET 0.122921 0.045205 -0.019046
						CHANNELS 3 Zrotation Yrotation Xrotation
						JOINT lelbow
						{
							OFFSET 0.255332 -0.015649 -0.022946
							CHANNELS 3 Zrotation Yrotation Xrotation
							JOINT lwrist
							{
								OFFSET 0.265709 0.012698 -0.007375
								CHANNELS 3 Zrotation Yrotation Xrotation
								End Site
								{
									OFFSET 0.000000 0.000000 0.000000
								}
							}
						}
					}
				}
				JOINT rclavicle
				{
					OFFSET -0.082954 0.112472 -0.023707
					CHANNELS 3 Zrotation Yrotation Xrotation
					JOINT rshoulder
					{
						OFFSET -0.113228 0.046853 -0.008472
						CHANNELS 3 Zrotation Yrotation Xrotation
						JOINT relbow
						{
							OFFSET -0.260127 -0.014369 -0.031269
							CHANNELS 3 Zrotation Yrotation Xrotation
							JOINT rwrist
							{
								OFFSET -0.269108 0.006794 -0.006027
								CHANNELS 3 Zrotation Yrotation Xrotation
								End Site
								{
									OFFSET 0.000000 0.000000 0.000000
								}
							}
						}
					}
				}
			}
		}
	}
}
MOTION
Frames: 5
Frame Time: 0.033333
-0.772988 -1.559111 0.965001 177.754335 -0.692889 109.192313 4.233181 -9.875675 16.975719 -6.406896 -19.858885 12.345739 -1.585448 14.063508 10.376944 0.000000 -0.000000 0.000000 -11.824850 14.232800 -63.942690 7.491582 -14.721076 36.847911 -5.217427 -12.836999 -6.315912 0.000000 -0.000000 0.000000 -3.426531 -12.416476 -4.366200 10.881169 -1.925909 9.307747 3.893541 -8.900394 6.003014 6.044174 19.065095 -3.954809 -10.696632 -0.597133 -4.618860 -7.936621 9.466281 9.815032 -60.551842 -5.269054 19.992289 -148.203444 -82.292786 174.751442 5.723813 -8.982210 -25.735512 21.509452 -11.651562 -4.369319 54.752322 20.924097 9.612203 -94.152904 47.396819 -84.671787 11.256074 8.791073 -42.137039 
-0.755705 -1.412515 0.957077 176.643091 -1.140597 109.103410 7.330172 -0.119180 11.497449 -7.696470 -2.995036 31.698531 -15.627154 11.741629 15.412353 0.000000 -0.000000 0.000000 -7.382572 11.937950 -58.343227 4.596019 -14.596215 23.369622 -5.912738 -11.083770 -5.516874 0.000000 -0.000000 0.000000 -1.534067 -11.589773 -4.545719 11.948606 -4.123500 8.298086 2.826616 -8.939553 6.863245 4.086375 21.359326 -5.278394 -13.103672 1.609468 -3.886022 -10.160989 11.507153 9.536322 -58.675380 0.881580 17.644747 -80.886299 -80.753602 106.002523 13.582966 -6.815229 -22.264785 24.554218 -12.449726 -6.317329 57.446492 24.592226 13.829969 -114.128918 49.691526 -96.554655 9.063475 6.598836 -30.957073 
-0.740080 -1.265740 0.944322 174.671409 -1.122715 106.698010 9.101082 3.834095 7.493524 -4.401401 4.737728 58.520689 -11.224952 1.047712 2.679495 0.000000 -0.000000 0.000000 -1.935013 8.121076 -49.991818 4.680082 -15.380548 22.010502 -5.669330 -11.242128 -4.349223 0.000000 -0.000000 0.000000 0.489553 -9.537511 -0.876511 12.596170 -5.332127 6.737503 2.974404 -8.713522 5.585360 0.832012 17.269179 -4.093701 -14.499752 8.453145 -7.014894 -12.464414 9.666087 11.459830 -60.630257 7.209836 11.644364 -45.983809 -68.383319 69.637146 8.965516 -6.350334 -21.560053 22.186100 -8.771767 -6.915073 56.555807 27.811126 15.484264 -136.491947 51.525777 -110.784489 11.055975 3.692085 -13.924692 
-0.720648 -1.090292 0.929912 169.804327 -2.857518 98.141551 6.614270 6.040648 7.204424 -3.953584 6.349228 81.905568 -2.782939 12.903824 -1.015307 0.000000 -0.000000 0.000000 1.410573 2.540592 -35.954235 7.376247 -12.292955 36.810297 -13.854567 -12.700085 -17.193652 0.000000 -0.000000 0.000000 -0.375153 -4.561911 10.558294 12.039002 -4.958380 7.338425 3.759467 -7.210109 1.623771 -0.280737 14.235090 -6.086503 -15.164520 11.722839 -8.006434 -15.978949 4.537619 9.998683 -61.723937 17.251955 7.501996 -30.995089 -50.339982 55.472292 8.206708 -4.444418 -11.802211 18.459614 0.606230 -8.315921 42.399830 27.962520 11.732602 -157.818365 54.496938 -128.738890 12.344768 2.546964 -5.409619 
-0.706513 -0.997555 0.920966 166.556474 -2.114524 97.045907 6.699654 6.167810 -1.344822 -4.971905 8.334355 95.342368 0.423509 10.348356 -3.387813 0.000000 -0.000000 0.000000 2.870334 3.151775 -31.580009 7.511681 -10.412834 44.856754 -13.983476 -14.449665 -25.220185 0.000000 -0.000000 0.000000 1.221660 -1.676771 13.520522 10.623100 -2.916052 7.622914 3.628102 -5.081355 1.378013 0.431090 12.459468 -11.614827 -14.028153 11.232137 -6.856948 -16.188200 2.559660 8.117904 -62.241447 20.778047 5.701791 -24.691831 -38.467626 52.922960 5.117114 -5.166893 -4.419113 14.571726 4.506451 -7.460645 35.981774 25.917917 7.571665 -160.731103 58.758602 -129.997986 13.269218 4.081704 -6.864179 
